{
	"asset":{
		"generator":"Khronos glTF Blender I/O v4.0.44",
		"version":"2.0"
	},
	"scene":0,
	"scenes":[
		{
			"name":"Scene",
			"nodes":[
				0,
				1,
				2,
				3,
				4
			]
		}
	],
	"nodes":[
		{
			"mesh":0,
			"name":"wholemount",
			"rotation":[
				-0.7071068286895752,
				0,
				0,
				0.7071068286895752
			],
			"scale":[
				2.0999999046325684,
				0.6000000238418579,
				1.25
			],
			"translation":[
				0,
				0.324251651763916,
				-12.763299942016602
			]
		},
		{
			"mesh":1,
			"name":"Cube.021",
			"scale":[
				1.75,
				1.5,
				1.5
			],
			"translation":[
				0,
				0.599602222442627,
				-12.302346229553223
			]
		},
		{
			"mesh":2,
			"name":"Sphere.002",
			"scale":[
				0.9429731965065002,
				0.6025438904762268,
				1
			],
			"translation":[
				-0.09999999403953552,
				0.7899999618530273,
				-6.780453205108643
			]
		},
		{
			"mesh":3,
			"name":"Cube.008",
			"scale":[
				0.30000001192092896,
				0.5,
				0.3499999940395355
			],
			"translation":[
				-5.452607154846191,
				7.539361953735352,
				-4.868136405944824
			]
		},
		{
			"mesh":4,
			"name":"Cube.005",
			"scale":[
				0.30000001192092896,
				0.5,
				0.3499999940395355
			],
			"translation":[
				5.494030952453613,
				7.429723739624023,
				-4.892146110534668
			]
		}
	],
	"animations":[
		{
			"channels":[
				{
					"sampler":0,
					"target":{
						"node":0,
						"path":"translation"
					}
				},
				{
					"sampler":1,
					"target":{
						"node":0,
						"path":"rotation"
					}
				},
				{
					"sampler":2,
					"target":{
						"node":0,
						"path":"scale"
					}
				}
			],
			"name":"wholemountAction",
			"samplers":[
				{
					"input":20,
					"interpolation":"STEP",
					"output":21
				},
				{
					"input":20,
					"interpolation":"STEP",
					"output":22
				},
				{
					"input":20,
					"interpolation":"STEP",
					"output":23
				}
			]
		},
		{
			"channels":[
				{
					"sampler":0,
					"target":{
						"node":1,
						"path":"translation"
					}
				},
				{
					"sampler":1,
					"target":{
						"node":1,
						"path":"rotation"
					}
				},
				{
					"sampler":2,
					"target":{
						"node":1,
						"path":"scale"
					}
				}
			],
			"name":"Cube.021Action",
			"samplers":[
				{
					"input":24,
					"interpolation":"LINEAR",
					"output":25
				},
				{
					"input":20,
					"interpolation":"STEP",
					"output":26
				},
				{
					"input":20,
					"interpolation":"STEP",
					"output":27
				}
			]
		},
		{
			"channels":[
				{
					"sampler":0,
					"target":{
						"node":2,
						"path":"translation"
					}
				},
				{
					"sampler":1,
					"target":{
						"node":2,
						"path":"rotation"
					}
				},
				{
					"sampler":2,
					"target":{
						"node":2,
						"path":"scale"
					}
				}
			],
			"name":"Sphere.002Action",
			"samplers":[
				{
					"input":24,
					"interpolation":"LINEAR",
					"output":28
				},
				{
					"input":20,
					"interpolation":"STEP",
					"output":29
				},
				{
					"input":20,
					"interpolation":"STEP",
					"output":30
				}
			]
		},
		{
			"channels":[
				{
					"sampler":0,
					"target":{
						"node":3,
						"path":"translation"
					}
				},
				{
					"sampler":1,
					"target":{
						"node":3,
						"path":"rotation"
					}
				},
				{
					"sampler":2,
					"target":{
						"node":3,
						"path":"scale"
					}
				}
			],
			"name":"Cube.008Action",
			"samplers":[
				{
					"input":24,
					"interpolation":"LINEAR",
					"output":31
				},
				{
					"input":20,
					"interpolation":"STEP",
					"output":32
				},
				{
					"input":20,
					"interpolation":"STEP",
					"output":33
				}
			]
		},
		{
			"channels":[
				{
					"sampler":0,
					"target":{
						"node":4,
						"path":"translation"
					}
				},
				{
					"sampler":1,
					"target":{
						"node":4,
						"path":"rotation"
					}
				},
				{
					"sampler":2,
					"target":{
						"node":4,
						"path":"scale"
					}
				}
			],
			"name":"Cube.005Action",
			"samplers":[
				{
					"input":24,
					"interpolation":"LINEAR",
					"output":34
				},
				{
					"input":20,
					"interpolation":"STEP",
					"output":35
				},
				{
					"input":20,
					"interpolation":"STEP",
					"output":36
				}
			]
		}
	],
	"meshes":[
		{
			"name":"Cube.026",
			"primitives":[
				{
					"attributes":{
						"POSITION":0,
						"NORMAL":1,
						"TEXCOORD_0":2
					},
					"indices":3
				}
			]
		},
		{
			"name":"Cube.043",
			"primitives":[
				{
					"attributes":{
						"POSITION":4,
						"NORMAL":5,
						"TEXCOORD_0":6
					},
					"indices":7
				}
			]
		},
		{
			"name":"Sphere.003",
			"primitives":[
				{
					"attributes":{
						"POSITION":8,
						"NORMAL":9,
						"TEXCOORD_0":10
					},
					"indices":11
				}
			]
		},
		{
			"name":"Cube.023",
			"primitives":[
				{
					"attributes":{
						"POSITION":12,
						"NORMAL":13,
						"TEXCOORD_0":14
					},
					"indices":15
				}
			]
		},
		{
			"name":"Cube.019",
			"primitives":[
				{
					"attributes":{
						"POSITION":16,
						"NORMAL":17,
						"TEXCOORD_0":18
					},
					"indices":19
				}
			]
		}
	],
	"accessors":[
		{
			"bufferView":0,
			"componentType":5126,
			"count":10300,
			"max":[
				2.507617235183716,
				0.5768030285835266,
				6.803752422332764
			],
			"min":[
				-2.507617235183716,
				-13.72582721710205,
				-0.7846424579620361
			],
			"type":"VEC3"
		},
		{
			"bufferView":1,
			"componentType":5126,
			"count":10300,
			"type":"VEC3"
		},
		{
			"bufferView":2,
			"componentType":5126,
			"count":10300,
			"type":"VEC2"
		},
		{
			"bufferView":3,
			"componentType":5123,
			"count":20670,
			"type":"SCALAR"
		},
		{
			"bufferView":4,
			"componentType":5126,
			"count":1172,
			"max":[
				1,
				1,
				1.0000001192092896
			],
			"min":[
				-1,
				-1,
				-1.8207383155822754
			],
			"type":"VEC3"
		},
		{
			"bufferView":5,
			"componentType":5126,
			"count":1172,
			"type":"VEC3"
		},
		{
			"bufferView":6,
			"componentType":5126,
			"count":1172,
			"type":"VEC2"
		},
		{
			"bufferView":7,
			"componentType":5123,
			"count":2370,
			"type":"SCALAR"
		},
		{
			"bufferView":8,
			"componentType":5126,
			"count":17120,
			"max":[
				0.9999998807907104,
				1,
				0.9999997615814209
			],
			"min":[
				-0.9999996423721313,
				-2.27763295173645,
				-4.747889518737793
			],
			"type":"VEC3"
		},
		{
			"bufferView":9,
			"componentType":5126,
			"count":17120,
			"type":"VEC3"
		},
		{
			"bufferView":10,
			"componentType":5126,
			"count":17120,
			"type":"VEC2"
		},
		{
			"bufferView":11,
			"componentType":5123,
			"count":25836,
			"type":"SCALAR"
		},
		{
			"bufferView":12,
			"componentType":5126,
			"count":1072,
			"max":[
				0.7635858058929443,
				1.0049762725830078,
				11.615461349487305
			],
			"min":[
				-5.062698841094971,
				-6.8322625160217285,
				-1.0000008344650269
			],
			"type":"VEC3"
		},
		{
			"bufferView":13,
			"componentType":5126,
			"count":1072,
			"type":"VEC3"
		},
		{
			"bufferView":14,
			"componentType":5126,
			"count":1072,
			"type":"VEC2"
		},
		{
			"bufferView":15,
			"componentType":5123,
			"count":2148,
			"type":"SCALAR"
		},
		{
			"bufferView":16,
			"componentType":5126,
			"count":1070,
			"max":[
				5.062663555145264,
				1.0049793720245361,
				11.615456581115723
			],
			"min":[
				-0.7635889649391174,
				-6.8322553634643555,
				-1.000000238418579
			],
			"type":"VEC3"
		},
		{
			"bufferView":17,
			"componentType":5126,
			"count":1070,
			"type":"VEC3"
		},
		{
			"bufferView":18,
			"componentType":5126,
			"count":1070,
			"type":"VEC2"
		},
		{
			"bufferView":19,
			"componentType":5123,
			"count":2142,
			"type":"SCALAR"
		},
		{
			"bufferView":20,
			"componentType":5126,
			"count":2,
			"max":[
				4.166666666666667
			],
			"min":[
				0.041666666666666664
			],
			"type":"SCALAR"
		},
		{
			"bufferView":21,
			"componentType":5126,
			"count":2,
			"type":"VEC3"
		},
		{
			"bufferView":22,
			"componentType":5126,
			"count":2,
			"type":"VEC4"
		},
		{
			"bufferView":23,
			"componentType":5126,
			"count":2,
			"type":"VEC3"
		},
		{
			"bufferView":24,
			"componentType":5126,
			"count":100,
			"max":[
				4.166666666666667
			],
			"min":[
				0.041666666666666664
			],
			"type":"SCALAR"
		},
		{
			"bufferView":25,
			"componentType":5126,
			"count":100,
			"type":"VEC3"
		},
		{
			"bufferView":26,
			"componentType":5126,
			"count":2,
			"type":"VEC4"
		},
		{
			"bufferView":27,
			"componentType":5126,
			"count":2,
			"type":"VEC3"
		},
		{
			"bufferView":28,
			"componentType":5126,
			"count":100,
			"type":"VEC3"
		},
		{
			"bufferView":29,
			"componentType":5126,
			"count":2,
			"type":"VEC4"
		},
		{
			"bufferView":30,
			"componentType":5126,
			"count":2,
			"type":"VEC3"
		},
		{
			"bufferView":31,
			"componentType":5126,
			"count":100,
			"type":"VEC3"
		},
		{
			"bufferView":32,
			"componentType":5126,
			"count":2,
			"type":"VEC4"
		},
		{
			"bufferView":33,
			"componentType":5126,
			"count":2,
			"type":"VEC3"
		},
		{
			"bufferView":34,
			"componentType":5126,
			"count":100,
			"type":"VEC3"
		},
		{
			"bufferView":35,
			"componentType":5126,
			"count":2,
			"type":"VEC4"
		},
		{
			"bufferView":36,
			"componentType":5126,
			"count":2,
			"type":"VEC3"
		}
	],
	"bufferViews":[
		{
			"buffer":0,
			"byteLength":123600,
			"byteOffset":0,
			"target":34962
		},
		{
			"buffer":0,
			"byteLength":123600,
			"byteOffset":123600,
			"target":34962
		},
		{
			"buffer":0,
			"byteLength":82400,
			"byteOffset":247200,
			"target":34962
		},
		{
			"buffer":0,
			"byteLength":41340,
			"byteOffset":329600,
			"target":34963
		},
		{
			"buffer":0,
			"byteLength":14064,
			"byteOffset":370940,
			"target":34962
		},
		{
			"buffer":0,
			"byteLength":14064,
			"byteOffset":385004,
			"target":34962
		},
		{
			"buffer":0,
			"byteLength":9376,
			"byteOffset":399068,
			"target":34962
		},
		{
			"buffer":0,
			"byteLength":4740,
			"byteOffset":408444,
			"target":34963
		},
		{
			"buffer":0,
			"byteLength":205440,
			"byteOffset":413184,
			"target":34962
		},
		{
			"buffer":0,
			"byteLength":205440,
			"byteOffset":618624,
			"target":34962
		},
		{
			"buffer":0,
			"byteLength":136960,
			"byteOffset":824064,
			"target":34962
		},
		{
			"buffer":0,
			"byteLength":51672,
			"byteOffset":961024,
			"target":34963
		},
		{
			"buffer":0,
			"byteLength":12864,
			"byteOffset":1012696,
			"target":34962
		},
		{
			"buffer":0,
			"byteLength":12864,
			"byteOffset":1025560,
			"target":34962
		},
		{
			"buffer":0,
			"byteLength":8576,
			"byteOffset":1038424,
			"target":34962
		},
		{
			"buffer":0,
			"byteLength":4296,
			"byteOffset":1047000,
			"target":34963
		},
		{
			"buffer":0,
			"byteLength":12840,
			"byteOffset":1051296,
			"target":34962
		},
		{
			"buffer":0,
			"byteLength":12840,
			"byteOffset":1064136,
			"target":34962
		},
		{
			"buffer":0,
			"byteLength":8560,
			"byteOffset":1076976,
			"target":34962
		},
		{
			"buffer":0,
			"byteLength":4284,
			"byteOffset":1085536,
			"target":34963
		},
		{
			"buffer":0,
			"byteLength":8,
			"byteOffset":1089820
		},
		{
			"buffer":0,
			"byteLength":24,
			"byteOffset":1089828
		},
		{
			"buffer":0,
			"byteLength":32,
			"byteOffset":1089852
		},
		{
			"buffer":0,
			"byteLength":24,
			"byteOffset":1089884
		},
		{
			"buffer":0,
			"byteLength":400,
			"byteOffset":1089908
		},
		{
			"buffer":0,
			"byteLength":1200,
			"byteOffset":1090308
		},
		{
			"buffer":0,
			"byteLength":32,
			"byteOffset":1091508
		},
		{
			"buffer":0,
			"byteLength":24,
			"byteOffset":1091540
		},
		{
			"buffer":0,
			"byteLength":1200,
			"byteOffset":1091564
		},
		{
			"buffer":0,
			"byteLength":32,
			"byteOffset":1092764
		},
		{
			"buffer":0,
			"byteLength":24,
			"byteOffset":1092796
		},
		{
			"buffer":0,
			"byteLength":1200,
			"byteOffset":1092820
		},
		{
			"buffer":0,
			"byteLength":32,
			"byteOffset":1094020
		},
		{
			"buffer":0,
			"byteLength":24,
			"byteOffset":1094052
		},
		{
			"buffer":0,
			"byteLength":1200,
			"byteOffset":1094076
		},
		{
			"buffer":0,
			"byteLength":32,
			"byteOffset":1095276
		},
		{
			"buffer":0,
			"byteLength":24,
			"byteOffset":1095308
		}
	],
	"buffers":[
		{
			"byteLength":1095332,
			"uri":"full_headset_guide.bin"
		}
	]
}
